<?xml version="1.0" encoding="utf-8"?>
<!-- Generator: Adobe Illustrator 24.2.1, SVG Export Plug-In . SVG Version: 6.00 Build 0)  -->
<svg version="1.1" id="Layer_1" xmlns="http://www.w3.org/2000/svg" xmlns:xlink="http://www.w3.org/1999/xlink" x="0px" y="0px"
	 viewBox="0 0 442.89 127.31" style="enable-background:new 0 0 442.89 127.31;" xml:space="preserve">
<style type="text/css">
	.st0{fill:#FFFFFF;stroke:#000000;stroke-miterlimit:10;}
	.st1{fill:#FFFFFF;}
</style>
<rect x="12.67" y="40.34" class="st0" width="418.93" height="69.93"/>
<rect x="71.96" class="st1" width="300.34" height="75.31"/>
<rect x="24.51" y="93.24" class="st1" width="395.25" height="33.4"/>
<g>
	<path d="M150.53,8.7c0,0.47-0.53,0.7-1.58,0.7c-3.41,0.06-5.52,0.66-6.32,1.79c-0.74,0.69-3.41,6.01-8,15.98
		c-2.05,4.4-3.97,8.28-5.77,11.62c-1.24,2.3-1.95,3.87-2.14,4.71c-0.19,0.84-0.28,2.66-0.28,5.46v17.63c0,2.05,0.26,3.27,0.79,3.64
		c0.53,0.37,2.37,0.65,5.53,0.84c1.67,0.12,2.51,0.41,2.51,0.88c0,0.47-0.43,0.7-1.3,0.7h-1.12l-13.02-0.28
		c-3.66,0-6.67,0.06-9.02,0.19c-0.37,0.06-0.81,0.09-1.3,0.09c-0.87,0-1.3-0.29-1.3-0.88c0-0.59,0.71-0.91,2.14-0.98
		c3.41-0.12,5.42-0.43,6.04-0.93c0.62-0.49,0.93-1.98,0.93-4.45V45.86c-0.62-1.36-2.42-4.99-5.39-10.88l-9.3-18.41
		c-0.93-1.8-2.05-3.81-3.35-6.04c-0.68-0.62-2.16-0.93-4.42-0.93c-2.26,0-3.39-0.34-3.39-1.02c0-0.5,0.5-0.74,1.49-0.74
		c1.3,0,3.91,0.06,7.81,0.19c2.23,0.06,3.84,0.09,4.84,0.09l10.79-0.14c0.43-0.09,0.93-0.14,1.49-0.14c1.12,0,1.67,0.31,1.67,0.94
		c0,0.56-1.06,0.84-3.16,0.84c-3.85,0-5.77,0.69-5.77,2.06c0,1.06,1.95,5.33,5.85,12.82l8.45,15.99c1.54-2.77,3.3-6.19,5.28-10.25
		l5.49-11.07c2.08-3.99,3.11-6.61,3.11-7.86c0-0.81-0.53-1.28-1.58-1.4c-2.17-0.31-3.63-0.44-4.37-0.38
		c-1.36,0.06-2.05-0.25-2.05-0.94c0-0.5,0.59-0.75,1.77-0.75h5.39h3.07C147.36,7.64,150.53,7.93,150.53,8.7z"/>
	<path d="M218.88,72.04c0,0.53-0.46,0.79-1.4,0.79c-0.62,0-1.18-0.03-1.67-0.09L204,72.36l-11.81,0.37c-0.43,0.06-0.9,0.09-1.4,0.09
		c-1.24,0-1.86-0.32-1.86-0.97c0-0.71,0.84-1.07,2.51-1.07c5.46-0.06,8.18-0.61,8.18-1.64c0-0.06-0.06-0.3-0.19-0.73l-0.76-2.46
		l-0.48-1.3c-0.56-1.92-1.92-6.17-4.09-12.75h-19.88c-3.72,9.92-5.57,15.62-5.57,17.11c0,0.87,0.37,1.4,1.12,1.58
		c0.19,0.06,1.74,0.19,4.65,0.37c1.8,0.06,2.7,0.37,2.7,0.93c0,0.62-0.81,0.93-2.42,0.93c-2.85,0-6.17-0.12-9.95-0.37
		c-0.93-0.06-1.89-0.09-2.88-0.09c-0.99,0-1.95,0.1-2.88,0.31c-0.5,0.1-0.9,0.16-1.21,0.16c-0.87,0-1.3-0.28-1.3-0.84
		c0-0.56,0.98-0.87,2.93-0.93c1.95-0.06,3.36-0.36,4.23-0.89c0.87-0.53,1.55-1.54,2.05-3.03c7.97-22.89,14.47-41.28,19.47-55.15
		c0.14-0.73,0.43-1.55,0.87-2.47l0.4-1.7c0.19-0.68,0.43-1.02,0.74-1.02c0.19,0,0.34,0.19,0.46,0.56c0.81,2.42,2.63,7.47,5.49,15.16
		c2.23,6.01,7.78,21.11,16.65,45.29c0.5,1.4,1.13,2.3,1.91,2.68c0.77,0.38,2.37,0.61,4.79,0.67
		C218.08,71.21,218.88,71.51,218.88,72.04z M193.69,49.77c-1.01-2.79-2.68-7.41-5.02-13.86l-4.47-12.89
		c-2.61,6.86-5.76,15.78-9.43,26.75H193.69z"/>
	<path d="M281.56,8.7c0,0.47-0.53,0.7-1.58,0.7c-3.41,0.06-5.52,0.66-6.32,1.79c-0.74,0.69-3.41,6.01-8,15.98
		c-2.05,4.4-3.97,8.28-5.77,11.62c-1.24,2.3-1.95,3.87-2.14,4.71c-0.19,0.84-0.28,2.66-0.28,5.46v17.63c0,2.05,0.26,3.27,0.79,3.64
		c0.53,0.37,2.37,0.65,5.53,0.84c1.67,0.12,2.51,0.41,2.51,0.88c0,0.47-0.43,0.7-1.3,0.7h-1.12l-13.02-0.28
		c-3.66,0-6.67,0.06-9.02,0.19c-0.37,0.06-0.81,0.09-1.3,0.09c-0.87,0-1.3-0.29-1.3-0.88c0-0.59,0.71-0.91,2.14-0.98
		c3.41-0.12,5.42-0.43,6.04-0.93c0.62-0.49,0.93-1.98,0.93-4.45V45.86c-0.62-1.36-2.42-4.99-5.39-10.88l-9.3-18.41
		c-0.93-1.8-2.05-3.81-3.35-6.04c-0.68-0.62-2.16-0.93-4.42-0.93c-2.26,0-3.39-0.34-3.39-1.02c0-0.5,0.5-0.74,1.49-0.74
		c1.3,0,3.91,0.06,7.81,0.19c2.23,0.06,3.84,0.09,4.84,0.09l10.79-0.14c0.43-0.09,0.93-0.14,1.49-0.14c1.12,0,1.67,0.31,1.67,0.94
		c0,0.56-1.06,0.84-3.16,0.84c-3.85,0-5.77,0.69-5.77,2.06c0,1.06,1.95,5.33,5.85,12.82l8.45,15.99c1.54-2.77,3.3-6.19,5.28-10.25
		l5.49-11.07c2.08-3.99,3.11-6.61,3.11-7.86c0-0.81-0.53-1.28-1.58-1.4c-2.17-0.31-3.63-0.44-4.37-0.38
		c-1.36,0.06-2.05-0.25-2.05-0.94c0-0.5,0.59-0.75,1.77-0.75h5.39h3.07C278.4,7.64,281.56,7.93,281.56,8.7z"/>
	<path d="M352.8,40.74c0,9.24-2.78,17.05-8.32,23.44c-5.55,6.39-12.35,9.58-20.41,9.58c-8.56,0-15.75-3.24-21.58-9.72
		c-5.83-6.48-8.74-14.46-8.74-23.95c0-9.67,2.8-17.59,8.42-23.76c5.61-6.17,12.79-9.25,21.53-9.25c8.25,0,15.16,3.22,20.74,9.67
		C350.01,23.2,352.8,31.2,352.8,40.74z M342.38,41.21c0-11.38-2.32-20.24-6.97-26.58c-2.92-3.98-6.97-5.97-12.18-5.97
		c-4.96,0-8.8,1.52-11.53,4.57c-5.02,5.6-7.53,14.71-7.53,27.33c0,10.01,1.75,17.79,5.25,23.32c3.5,5.53,8.42,8.3,14.74,8.3
		c5.89,0,10.32-2.61,13.3-7.84C340.74,58.56,342.38,50.85,342.38,41.21z"/>
</g>
<g>
	<path d="M42.74,104.24c-1.23-2.4-3.39-2.46-3.93-2.46c-2.37,0-3.72,1.71-3.72,3.72c0,2.16,1.5,2.88,3.51,3.87
		c1.98,0.96,2.97,1.38,3.99,2.1c0.87,0.6,2.13,1.65,2.13,3.87c0,3.36-2.82,5.85-6.24,5.85c-2.58,0-3.9-1.23-4.65-2.1
		c-0.78-0.9-1.11-1.68-1.29-2.19l1.14-0.54c0.27,0.78,0.78,1.56,1.08,1.92c0.9,1.14,2.37,1.71,3.75,1.71c2.7,0,4.83-1.98,4.83-4.62
		c0-1.08-0.42-2.22-1.95-3.15c-0.57-0.33-1.74-0.93-3.39-1.74c-1.98-0.96-2.97-1.5-3.66-2.64c-0.45-0.75-0.63-1.5-0.63-2.28
		c0-2.31,1.56-4.98,5.13-4.98c2.01,0,3.84,0.96,4.86,2.85L42.74,104.24z"/>
	<path d="M53.54,120.86v-20.22l16.8,17.58v-17.37h1.32v20.52l-16.8-17.58v17.07H53.54z"/>
	<path d="M91.16,102.05h-8.28v7.26h8.1v1.2h-8.1v9.15h8.28v1.2h-9.6v-20.01h9.6V102.05z"/>
	<path d="M110.33,114.29h-8.52l-2.67,6.57H97.7l8.43-20.61l8.31,20.61H113L110.33,114.29z M109.85,113.09l-3.75-9.48l-3.81,9.48
		H109.85z"/>
	<path d="M123.38,110.27l9.45-9.42h1.74l-9.69,9.57l10.26,10.44h-1.8l-9.42-9.54l-0.54,0.51v9.03h-1.32v-20.01h1.32V110.27z"/>
	<path d="M152.36,102.05h-8.28v7.26h8.1v1.2h-8.1v9.15h8.28v1.2h-9.6v-20.01h9.6V102.05z"/>
	<path d="M169.58,120.86l-6.48-9.45h-0.6v9.45h-1.32v-20.01h2.88c1.53,0,2.91,0.12,4.23,1.02c1.56,1.08,2.07,2.73,2.07,4.29
		c0,1.98-0.87,4.02-3.36,4.86c-1.05,0.36-2.01,0.39-2.46,0.39l6.54,9.45H169.58z M162.5,110.21h1.92c2.85,0,4.56-1.5,4.56-4.08
		c0-2.01-0.99-3.06-1.77-3.48c-0.84-0.48-2.28-0.6-3.06-0.6h-1.65V110.21z"/>
	<path d="M188.84,104.24c-1.23-2.4-3.39-2.46-3.93-2.46c-2.37,0-3.72,1.71-3.72,3.72c0,2.16,1.5,2.88,3.51,3.87
		c1.98,0.96,2.97,1.38,3.99,2.1c0.87,0.6,2.13,1.65,2.13,3.87c0,3.36-2.82,5.85-6.24,5.85c-2.58,0-3.9-1.23-4.65-2.1
		c-0.78-0.9-1.11-1.68-1.29-2.19l1.14-0.54c0.27,0.78,0.78,1.56,1.08,1.92c0.9,1.14,2.37,1.71,3.75,1.71c2.7,0,4.83-1.98,4.83-4.62
		c0-1.08-0.42-2.22-1.95-3.15c-0.57-0.33-1.74-0.93-3.39-1.74c-1.98-0.96-2.97-1.5-3.66-2.64c-0.45-0.75-0.63-1.5-0.63-2.28
		c0-2.31,1.56-4.98,5.13-4.98c2.01,0,3.84,0.96,4.86,2.85L188.84,104.24z"/>
	<path d="M226.39,113.9c-0.99,1.35-1.92,2.31-2.55,2.91l3,4.05h-1.68l-2.31-3.15c-1.41,1.17-2.34,1.92-3.54,2.55
		c-1.29,0.66-2.43,0.99-3.72,0.99c-1.53,0-2.7-0.48-3.63-1.38c-0.87-0.84-1.56-2.1-1.56-3.78c0-1.62,0.6-2.91,1.32-3.78
		c0.6-0.75,1.47-1.44,2.52-2.13l2.13-1.38c-1.38-2.13-2.01-3.12-2.01-4.44c0-0.96,0.36-1.98,1.14-2.76
		c0.72-0.75,1.62-1.11,2.76-1.11c1.11,0,1.92,0.42,2.55,0.99c0.84,0.78,1.11,1.74,1.11,2.73c0,0.66-0.09,1.83-1.47,3.21
		c-0.51,0.51-1.62,1.32-2.25,1.74l4.89,6.6c0.66-0.66,1.26-1.32,2.34-2.67L226.39,113.9z M217.1,109.82l-1.89,1.23
		c-1.02,0.66-1.92,1.35-2.55,2.19c-0.66,0.9-0.87,1.71-0.87,2.76c0,0.87,0.18,1.98,1.05,2.91c0.54,0.57,1.41,1.14,2.79,1.14
		c1.11,0,2.37-0.42,3.51-1.08c1.08-0.6,2.16-1.5,2.97-2.31L217.1,109.82z M219.68,106.43c0.57-0.6,0.93-1.23,0.93-2.19
		c0-0.81-0.33-1.44-0.69-1.8c-0.45-0.45-1.14-0.69-1.74-0.69c-0.39,0-1.05,0.09-1.65,0.66c-0.54,0.51-0.84,1.29-0.84,2.01
		c0,1.35,1.08,2.61,1.77,3.72C218.11,107.72,219.14,107,219.68,106.43z"/>
	<path d="M261.97,104.93c-1.71-2.01-4.17-3.15-6.75-3.15c-5.13,0-8.97,4.11-8.97,9.18c0,5.94,4.95,9.03,9,9.03
		c2.01,0,4.68-0.81,6.72-3.03v1.74c-2.04,1.8-4.5,2.49-6.66,2.49c-6,0-10.44-4.71-10.44-10.29c0-5.76,4.62-10.32,10.38-10.32
		c3.81,0,6.12,2.04,6.72,2.61V104.93z"/>
	<path d="M272.11,100.85v18.81h5.58v1.2h-6.9v-20.01H272.11z"/>
	<path d="M304.06,110.9c0,5.76-4.53,10.29-10.38,10.29c-5.88,0-10.38-4.53-10.38-10.29c0-5.76,4.53-10.32,10.38-10.32
		C299.53,100.58,304.06,105.14,304.06,110.9z M302.68,110.9c0-5.13-3.84-9.12-9-9.12c-5.16,0-9,3.99-9,9.12c0,5.1,3.84,9.09,9,9.09
		C298.84,119.99,302.68,116,302.68,110.9z"/>
	<path d="M316.18,102.05v18.81h-1.32v-18.81h-5.19v-1.2h11.7v1.2H316.18z"/>
	<path d="M330.31,109.34h12.12v-8.49h1.32v20.01h-1.32v-10.32h-12.12v10.32H329v-20.01h1.32V109.34z"/>
	<path d="M354.97,100.85v20.01h-1.32v-20.01H354.97z"/>
	<path d="M364.88,120.86v-20.22l16.8,17.58v-17.37h1.32v20.52l-16.8-17.58v17.07H364.88z"/>
	<path d="M403.33,111.26h8.4c0,1.83-0.39,4.47-2.04,6.57c-1.77,2.25-4.47,3.36-7.53,3.36c-5.88,0-10.35-4.32-10.35-10.29
		c0-5.94,4.62-10.32,10.44-10.32c2.82,0,4.71,0.96,6.27,2.16c0.84,0.66,1.59,1.38,2.4,2.52l-1.05,0.84
		c-0.57-0.96-1.38-1.77-1.92-2.22c-1.26-1.05-3.24-2.1-5.73-2.1c-5.13,0-9.03,4.08-9.03,9.18c0,5.01,3.78,9.03,8.94,9.03
		c3.42,0,5.88-1.74,6.96-3.39c0.78-1.2,1.26-2.85,1.32-4.14h-7.08V111.26z"/>
</g>
</svg>
